HIERARCHY
ROOT Hips
{
    OFFSET 0.000000 0.000000 0.000000
    CHANNELS 6 Xposition Yposition Zposition Zrotation Xrotation Yrotation
    JOINT Spine
    {
        OFFSET -0.000000 7.236184 0.000000
        CHANNELS 3 Zrotation Xrotation Yrotation
        JOINT Spine1
        {
            OFFSET -0.000000 20.420147 0.000000
            CHANNELS 3 Zrotation Xrotation Yrotation
            JOINT Neck
            {
                OFFSET -0.000000 20.336288 1.848754
                CHANNELS 3 Zrotation Xrotation Yrotation
                JOINT Head
                {
                    OFFSET -0.000000 12.354461 -1.764923
                    CHANNELS 3 Zrotation Xrotation Yrotation
                    End Site
                    {
                        OFFSET -0.000000 22.061537 0.000000
                    }
                }
            }
            JOINT LeftShoulder
            {
                OFFSET 3.573296 18.396038 -0.314103
                CHANNELS 3 Zrotation Xrotation Yrotation
                JOINT LeftArm
                {
                    OFFSET 10.880760 0.000000 0.000000
                    CHANNELS 3 Zrotation Xrotation Yrotation
                    JOINT LeftForeArm
                    {
                        OFFSET 27.185530 0.000000 0.000000
                        CHANNELS 3 Zrotation Xrotation Yrotation
                        JOINT LeftHand
                        {
                            OFFSET 27.825975 0.000000 0.000000
                            CHANNELS 3 Zrotation Xrotation Yrotation
                            End Site
                            {
                                OFFSET 13.236923 0.000000 0.000000
                            }
                        }
                    }
                }
            }
            JOINT RightShoulder
            {
                OFFSET -3.474926 18.396038 -0.314103
                CHANNELS 3 Zrotation Xrotation Yrotation
                JOINT RightArm
                {
                    OFFSET -10.880760 0.000000 0.000000
                    CHANNELS 3 Zrotation Xrotation Yrotation
                    JOINT RightForeArm
                    {
                        OFFSET -27.185530 0.000000 0.000000
                        CHANNELS 3 Zrotation Xrotation Yrotation
                        JOINT RightHand
                        {
                            OFFSET -27.825975 0.000000 0.000000
                            CHANNELS 3 Zrotation Xrotation Yrotation
                            End Site
                            {
                                OFFSET -13.236923 0.000000 0.000000
                            }
                        }
                    }
                }
            }
        }
    }
    JOINT LeftUpLeg
    {
        OFFSET 8.824615 0.000000 0.000000
        CHANNELS 3 Zrotation Xrotation Yrotation
        JOINT LeftLeg
        {
            OFFSET -0.000000 -35.111282 0.000000
            CHANNELS 3 Zrotation Xrotation Yrotation
            JOINT LeftFoot
            {
                OFFSET -0.000000 -42.324711 0.000000
                CHANNELS 3 Zrotation Xrotation Yrotation
                JOINT LeftToeBase
                {
                    OFFSET -0.000000 -5.735999 13.236923
                    CHANNELS 3 Zrotation Xrotation Yrotation
                    End Site
                    {
                        OFFSET -0.000000 0.000000 3.529846
                    }
                }
            }
        }
    }
    JOINT RightUpLeg
    {
        OFFSET -8.824615 0.000000 0.000000
        CHANNELS 3 Zrotation Xrotation Yrotation
        JOINT RightLeg
        {
            OFFSET -0.000000 -35.111282 0.000000
            CHANNELS 3 Zrotation Xrotation Yrotation
            JOINT RightFoot
            {
                OFFSET -0.000000 -42.324711 0.000000
                CHANNELS 3 Zrotation Xrotation Yrotation
                JOINT RightToeBase
                {
                    OFFSET -0.000000 -5.735999 13.236923
                    CHANNELS 3 Zrotation Xrotation Yrotation
                    End Site
                    {
                        OFFSET -0.000000 0.000000 3.529846
                    }
                }
            }
        }
    }
}
MOTION
Frames:    8
Frame Time:    0.008333
-4.090312    82.334679    109.285309    0.993675    -1.685509    -151.074829    -3.318679    -13.270747    -0.432563    -2.591547    15.839248    0.313066    1.375318    15.746291    -7.769514    20.570911    10.911474    -7.127348    2.559327    13.565264    -12.078606    -35.261917    32.823959    -65.143280    12.653784    -35.077660    -119.002190    11.808640    -14.854431    6.230563    2.758015    15.159702    6.094169    55.111572    10.206504    48.390297    -9.813787    -35.934582    131.624649    -13.839346    -15.535547    -5.330194    9.100150    -15.674734    -0.475314    0.016322    22.322010    6.038591    -11.633375    -6.263402    -15.832973    1.206839    0.445395    -1.336660    -8.028693    1.554963    -7.707955    11.388602    16.853252    -15.525764    0.000000    0.000000    0.000000    0.000000    0.000000    0.000000    
-4.097687    82.336151    109.290550    0.998137    -1.703407    -151.088699    -3.317113    -13.254195    -0.444842    -2.571121    15.777090    0.296888    1.391454    15.774620    -7.777262    20.577267    10.939662    -7.140074    2.572806    13.553715    -12.091610    -35.254120    32.826496    -65.142715    12.624751    -35.029560    -119.007393    11.858771    -14.842010    6.237822    2.726656    15.105286    6.095472    55.111275    10.202922    48.401955    -9.903408    -36.003498    131.569214    -13.782996    -15.448868    -5.320884    9.090532    -15.691803    -0.479498    0.013608    22.326878    6.050156    -11.631224    -6.267589    -15.822823    1.207884    0.444814    -1.337820    -8.039135    1.531755    -7.669818    11.395988    16.850075    -15.544038    0.000000    0.000000    0.000000    0.000000    0.000000    0.000000    
-4.104847    82.337486    109.295906    1.002476    -1.720979    -151.102722    -3.314889    -13.237277    -0.456052    -2.552498    15.714625    0.281211    1.408601    15.805214    -7.784878    20.583874    10.968709    -7.152773    2.586057    13.541517    -12.105335    -35.245411    32.827106    -65.142754    12.595710    -34.982391    -119.014793    11.907229    -14.829922    6.244733    2.694582    15.050117    6.097491    55.110470    10.195666    48.414211    -9.989895    -36.071339    131.516968    -13.728348    -15.366304    -5.312008    9.081109    -15.708996    -0.483554    0.010806    22.332285    6.062307    -11.629018    -6.271508    -15.813433    1.208995    0.444498    -1.339050    -8.049582    1.507781    -7.632978    11.403069    16.848873    -15.561387    0.000000    0.000000    0.000000    0.000000    0.000000    0.000000    
-4.111666    82.338593    109.301445    1.006637    -1.738141    -151.117142    -3.311689    -13.219739    -0.465401    -2.536708    15.651388    0.266303    1.427219    15.839779    -7.792328    20.591616    10.999529    -7.165537    2.599010    13.528377    -12.120421    -35.235226    32.823910    -65.144348    12.566382    -34.936222    -119.026245    11.952932    -14.817959    6.251445    2.661244    14.993215    6.100578    55.108295    10.181938    48.427818    -10.071337    -36.137989    131.470276    -13.676636    -15.290856    -5.303471    9.072080    -15.726480    -0.487214    0.007840    22.338758    6.074832    -11.626767    -6.275288    -15.804695    1.209676    0.443768    -1.339806    -8.060158    1.482221    -7.598072    11.409766    16.851160    -15.576860    0.000000    0.000000    0.000000    0.000000    0.000000    0.000000    
-4.118062    82.339386    109.307335    1.010585    -1.754849    -151.132233    -3.306910    -13.201150    -0.473930    -2.525509    15.586721    0.253966    1.448095    15.880086    -7.799644    20.600815    11.032239    -7.178354    2.611146    13.514009    -12.137177    -35.222645    32.815624    -65.147926    12.536883    -34.891270    -119.042381    11.995341    -14.806101    6.257519    2.626416    14.933154    6.105269    55.104122    10.160446    48.442837    -10.146607    -36.204338    131.430359    -13.628276    -15.225482    -5.295879    9.063482    -15.744517    -0.490425    0.004654    22.346697    6.088270    -11.624533    -6.278733    -15.797007    1.210482    0.443439    -1.340700    -8.070868    1.454130    -7.565814    11.415640    16.858549    -15.590151    0.000000    0.000000    0.000000    0.000000    0.000000    0.000000    
-4.123970    82.339836    109.313606    1.014243    -1.771047    -151.148193    -3.300471    -13.181501    -0.480820    -2.519053    15.520761    0.243804    1.471101    15.927241    -7.806816    20.611860    11.066355    -7.191105    2.622306    13.498298    -12.155358    -35.207546    32.801819    -65.154106    12.507234    -34.847847    -119.063782    12.033895    -14.794296    6.263269    2.589404    14.869644    6.111377    55.097542    10.130949    48.460526    -10.214693    -36.270775    131.398041    -13.584456    -15.172009    -5.289328    9.055328    -15.763081    -0.492948    0.001350    22.356245    6.102571    -11.622422    -6.281761    -15.790449    1.210955    0.443113    -1.341224    -8.081855    1.422867    -7.536795    11.420608    16.872320    -15.600169    0.000000    0.000000    0.000000    0.000000    0.000000    0.000000    
-4.129297    82.339897    109.320274    1.017629    -1.786730    -151.165115    -3.292326    -13.160970    -0.485482    -2.517559    15.454109    0.235373    1.496224    15.981045    -7.813868    20.624693    11.101728    -7.203763    2.632308    13.481841    -12.174556    -35.189850    32.782089    -65.163757    12.477944    -34.806690    -119.089981    12.068663    -14.782684    6.268619    2.550371    14.802258    6.118986    55.088028    10.094462    48.481171    -10.275206    -36.338303    131.373108    -13.545984    -15.132799    -5.284234    9.047789    -15.782336    -0.494766    -0.002279    22.367672    6.117874    -11.620484    -6.284298    -15.785024    1.211316    0.442815    -1.341625    -8.093050    1.387777    -7.511410    11.424460    16.893574    -15.606704    0.000000    0.000000    0.000000    0.000000    0.000000    0.000000    
-4.133981    82.339546    109.327301    1.020710    -1.801813    -151.183167    -3.282521    -13.139882    -0.488715    -2.521253    15.387765    0.229571    1.523080    16.041542    -7.820730    20.639275    11.136804    -7.215979    2.640808    13.464621    -12.194362    -35.169590    32.757030    -65.176537    12.449474    -34.768391    -119.120117    12.100568    -14.771680    6.273443    2.509911    14.731973    6.127961    55.074432    10.052020    48.505985    -10.328216    -36.407944    131.354843    -13.513614    -15.109033    -5.280804    9.040931    -15.802053    -0.495413    -0.005931    22.380737    6.133816    -11.618954    -6.286026    -15.780778    1.211403    0.442912    -1.341720    -8.104369    1.348576    -7.489827    11.426993    16.923040    -15.609318    0.000000    0.000000    0.000000    0.000000    0.000000    0.000000    
